HIERARCHY
ROOT hip
{
  OFFSET 0 0 0
  CHANNELS 6 Xposition Yposition Zposition Zrotation Yrotation Xrotation
  JOINT abdomen
  {
    OFFSET 0 20.6881 -0.73152
    CHANNELS 3 Zrotation Xrotation Yrotation
    JOINT chest
    {
      OFFSET 0 11.7043 -0.48768
      CHANNELS 3 Zrotation Xrotation Yrotation
      JOINT neck
      {
        OFFSET 0 22.1894 -2.19456
        CHANNELS 3 Zrotation Xrotation Yrotation
        JOINT head
        {
          OFFSET -0.24384 7.07133 1.2192
          CHANNELS 3 Zrotation Xrotation Yrotation
          JOINT leftEye
          {
            OFFSET 4.14528 8.04674 8.04672
            CHANNELS 3 Zrotation Xrotation Yrotation
            End Site
            {
              OFFSET 1 0 0
            }
          }
          JOINT rightEye
          {
            OFFSET -3.6576 8.04674 8.04672
            CHANNELS 3 Zrotation Xrotation Yrotation
            End Site
            {
              OFFSET 1 0 0
            }
          }
        }
      }
      JOINT rCollar
      {
        OFFSET -2.68224 19.2634 -4.8768
        CHANNELS 3 Zrotation Xrotation Yrotation
        JOINT rShldr
        {
          OFFSET -8.77824 -1.95073 1.46304
          CHANNELS 3 Zrotation Xrotation Yrotation
          JOINT rForeArm
          {
            OFFSET -28.1742 -1.7115 0.48768
            CHANNELS 3 Zrotation Xrotation Yrotation
            JOINT rHand
            {
              OFFSET -22.5879 0.773209 7.07136
              CHANNELS 3 Zrotation Xrotation Yrotation
              JOINT rThumb1
              {
                OFFSET -1.2192 -0.487915 3.41376
                CHANNELS 3 Zrotation Xrotation Yrotation
                JOINT rThumb2
                {
                  OFFSET -3.37035 -0.52449 3.41376
                  CHANNELS 3 Zrotation Xrotation Yrotation
                  End Site
                  {
                    OFFSET -1.78271 -1.18214 1.43049
                  }
                }
              }
              JOINT rIndex1
              {
                OFFSET -7.75947 0.938293 5.60832
                CHANNELS 3 Zrotation Xrotation Yrotation
                JOINT rIndex2
                {
                  OFFSET -2.54057 -0.884171 1.56538
                  CHANNELS 3 Zrotation Xrotation Yrotation
                  End Site
                  {
                    OFFSET -1.62519 -0.234802 1.16502
                  }
                }
              }
              JOINT rMid1
              {
                OFFSET -8.24714 1.18213 3.41376
                CHANNELS 3 Zrotation Xrotation Yrotation
                JOINT rMid2
                {
                  OFFSET -3.10165 -0.590103 1.0647
                  CHANNELS 3 Zrotation Xrotation Yrotation
                  End Site
                  {
                    OFFSET -2.48547 -0.328903 0.83742
                  }
                }
              }
              JOINT rRing1
              {
                OFFSET -8.82822 0.546677 1.51678
                CHANNELS 3 Zrotation Xrotation Yrotation
                JOINT rRing2
                {
                  OFFSET -2.60934 -0.819778 -0.0198488
                  CHANNELS 3 Zrotation Xrotation Yrotation
                  End Site
                  {
                    OFFSET -2.33842 -0.294052 0.168128
                  }
                }
              }
              JOINT rPinky1
              {
                OFFSET -8.27202 -0.0477905 -0.4584
                CHANNELS 3 Zrotation Xrotation Yrotation
                JOINT rPinky2
                {
                  OFFSET -1.82734 -0.647385 -0.700984
                  CHANNELS 3 Zrotation Xrotation Yrotation
                  End Site
                  {
                    OFFSET -1.69225 -0.51767 -0.607171
                  }
                }
              }
            }
          }
        }
      }
      JOINT lCollar
      {
        OFFSET 2.68224 19.2634 -4.8768
        CHANNELS 3 Zrotation Xrotation Yrotation
        JOINT lShldr
        {
          OFFSET 8.77824 -1.95073 1.46304
          CHANNELS 3 Zrotation Xrotation Yrotation
          JOINT lForeArm
          {
            OFFSET 28.1742 -1.7115 0.48768
            CHANNELS 3 Zrotation Xrotation Yrotation
            JOINT lHand
            {
              OFFSET 22.5879 0.773209 7.07136
              CHANNELS 3 Zrotation Xrotation Yrotation
              JOINT lThumb1
              {
                OFFSET 1.2192 -0.487915 3.41376
                CHANNELS 3 Zrotation Xrotation Yrotation
                JOINT lThumb2
                {
                  OFFSET 3.37035 -0.52449 3.41376
                  CHANNELS 3 Zrotation Xrotation Yrotation
                  End Site
                  {
                    OFFSET 1.78271 -1.18214 1.43049
                  }
                }
              }
              JOINT lIndex1
              {
                OFFSET 7.75947 0.938293 5.60832
                CHANNELS 3 Zrotation Xrotation Yrotation
                JOINT lIndex2
                {
                  OFFSET 2.54057 -0.884171 1.56538
                  CHANNELS 3 Zrotation Xrotation Yrotation
                  End Site
                  {
                    OFFSET 1.62519 -0.234802 1.16502
                  }
                }
              }
              JOINT lMid1
              {
                OFFSET 8.24714 1.18213 3.41376
                CHANNELS 3 Zrotation Xrotation Yrotation
                JOINT lMid2
                {
                  OFFSET 3.10165 -0.590103 1.0647
                  CHANNELS 3 Zrotation Xrotation Yrotation
                  End Site
                  {
                    OFFSET 2.48547 -0.328903 0.83742
                  }
                }
              }
              JOINT lRing1
              {
                OFFSET 8.82822 0.546677 1.51678
                CHANNELS 3 Zrotation Xrotation Yrotation
                JOINT lRing2
                {
                  OFFSET 2.60934 -0.819778 -0.0198488
                  CHANNELS 3 Zrotation Xrotation Yrotation
                  End Site
                  {
                    OFFSET 2.33842 -0.294052 0.168128
                  }
                }
              }
              JOINT lPinky1
              {
                OFFSET 8.27202 -0.0477905 -0.4584
                CHANNELS 3 Zrotation Xrotation Yrotation
                JOINT lPinky2
                {
                  OFFSET 1.82734 -0.647385 -0.700984
                  CHANNELS 3 Zrotation Xrotation Yrotation
                  End Site
                  {
                    OFFSET 1.69225 -0.51767 -0.607171
                  }
                }
              }
            }
          }
        }
      }
    }
  }
  JOINT rButtock
  {
    OFFSET -8.77824 4.35084 1.2192
    CHANNELS 3 Zrotation Xrotation Yrotation
    JOINT rThigh
    {
      OFFSET 0 -1.70687 -2.19456
      CHANNELS 3 Zrotation Xrotation Yrotation
      JOINT rShin
      {
        OFFSET 0 -36.8199 0.73152
        CHANNELS 3 Zrotation Xrotation Yrotation
        JOINT rFoot
        {
          OFFSET 0.73152 -45.1104 -5.12064
          CHANNELS 3 Zrotation Xrotation Yrotation
          End Site
          {
            OFFSET -1.1221 -3.69964 12.103
          }
        }
      }
    }
  }
  JOINT lButtock
  {
    OFFSET 8.77824 4.35084 1.2192
    CHANNELS 3 Zrotation Xrotation Yrotation
    JOINT lThigh
    {
      OFFSET 0 -1.70687 -2.19456
      CHANNELS 3 Zrotation Xrotation Yrotation
      JOINT lShin
      {
        OFFSET 0 -36.8199 0.73152
        CHANNELS 3 Zrotation Xrotation Yrotation
        JOINT lFoot
        {
          OFFSET -0.73152 -45.1104 -5.12064
          CHANNELS 3 Zrotation Xrotation Yrotation
          End Site
          {
            OFFSET 1.1221 -3.69964 12.103
          }
        }
      }
    }
  }
}
MOTION
Frames:	10
Frame Time:	0.00833333
0.0 0.0 0.0 0.0 0.0 0.0 0.0 0.0 0.0 0.0 0.0 0.0 0.0 0.0 0.0 0.0 0.0 0.0 0.0 0.0 0.0 0.0 0.0 0.0 0.0 0.0 0.0 0.0 0.0 0.0 0.0 0.0 0.0 0.0 0.0 0.0 0.0 0.0 0.0 0.0 0.0 0.0 0.0 0.0 0.0 0.0 0.0 0.0 0.0 0.0 0.0 0.0 0.0 0.0 0.0 0.0 0.0 0.0 0.0 0.0 0.0 0.0 0.0 0.0 0.0 0.0 0.0 0.0 0.0 0.0 0.0 0.0 0.0 0.0 0.0 0.0 0.0 0.0 0.0 0.0 0.0 0.0 0.0 0.0 0.0 0.0 0.0 0.0 0.0 0.0 0.0 0.0 0.0 0.0 0.0 0.0 0.0 0.0 0.0 0.0 0.0 0.0 0.0 0.0 0.0 0.0 0.0 0.0 0.0 0.0 0.0 0.0 0.0 0.0 0.0 0.0 0.0 0.0 0.0 0.0 0.0 0.0 0.0 0.0 0.0 0.0 0.0 0.0 0.0 0.0 0.0 0.0
-69.5544 84.3376 -4.24476 -0.0 0.0 -0.0 -0.0 -4.771896 -180.0 -0.0 -4.771896 180.0 0.031665 -0.00628 0.183597 -0.031644 0.006382 -0.183594 0.0 -0.0 -0.0 0.0 -0.0 -0.0 -155.61387 -4.23638 161.991154 25.645881 -23.152161 16.353226 -176.967426 -13.84904 178.705484 -3.797392 12.094135 -0.013101 -103.199394 36.330979 60.111426 0.034848 -21.735275 25.982675 -77.667448 43.02965 64.538509 175.959049 -50.551052 118.264201 23.903801 -61.333833 1.399383 -154.590396 19.273073 135.74607 -145.121676 2.055919 -179.774231 -135.23261 83.401163 159.38145 31.497272 83.083168 6.663937 0.824864 -0.64993 -3.658457 159.221291 -48.380822 -170.491911 169.77673 -16.664453 -157.651395 -169.699251 57.909185 -157.698195 -177.540311 4.6801 -145.334064 121.36458 30.329582 -71.957921 62.168797 -6.481966 -40.722499 145.521835 -6.585001 -118.766503 2.448464 38.851259 -0.637516 160.673322 -6.667841 -143.245105 164.91372 -19.568062 -143.963294 -0.004874 1.770919 -0.556328 -0.529672 -12.551895 1.845657 1.149411 -2.914417 1.065731 -34.397938 81.426315 0.145165 -0.0 0.0 -0.0 -0.0 -2.27635 -180.0 -3.340447 -2.663598 -150.50614 -75.1639 21.307457 12.836236 -0.0 0.0 -0.0 -0.0 -2.27635 -180.0 3.340447 -2.663598 150.50614 75.1639 21.307457 -12.836236
-70.321 84.6908 -4.33063 -0.0 0.0 -0.0 -0.0 -4.771896 -180.0 0.0 -4.771896 180.0 9.579663 3.263211 60.169506 -7.606876 6.687135 -59.997951 0.0 0.0 0.0 0.0 0.0 0.0 -155.504155 -3.514523 161.838528 98.113498 -75.898646 75.658498 6.322819 71.912885 -37.025568 170.860711 -15.94409 143.950971 83.25393 -50.258079 33.616048 -57.782544 31.421699 19.401897 60.461659 -70.523647 15.71111 13.330343 3.950409 4.881778 -36.036059 51.723116 29.832321 -44.544514 61.915513 36.54614 -77.742735 72.902851 95.870145 -20.94327 -58.885636 -39.078211 -75.778902 -51.667921 -74.249466 3.030819 -1.309606 1.138614 155.504155 -3.514523 -161.838528 -98.113498 -75.898646 -75.658498 -6.322819 71.912885 37.025568 -170.860711 -15.94409 -143.950971 -4.53085 -4.514112 0.520964 70.869028 29.568301 -63.240917 172.896918 -51.894009 -120.180804 -168.301081 -56.958554 -93.28613 -7.904304 -24.807577 3.013399 156.404244 20.032448 -137.175174 0.014868 -1.323148 0.415899 165.237533 -64.202028 179.249278 44.069432 -47.78389 42.859786 4.794486 -18.311412 5.229892 -0.0 0.0 -0.0 -0.0 -0.0 -0.0 -4.919407 3.500227 -54.588129 88.891524 33.647607 -8.266405 -0.0 0.0 -0.0 -0.0 -0.0 -0.0 4.919407 3.500227 54.588129 -88.891524 33.647607 8.266405
-70.774 84.8857 -4.37267 -0.0 0.0 -0.0 -0.0 -4.771896 -180.0 0.0 -4.771896 -180.0 11.73796 7.277322 86.105363 -8.061369 11.217989 -86.061418 0.0 -0.0 -0.0 0.0 -0.0 -0.0 -142.973735 39.431617 147.390037 -119.398424 70.349442 142.589795 22.236932 3.786453 -21.004752 -155.943878 58.140283 131.723453 -10.082806 9.553975 2.367178 13.902348 -15.142758 -3.23655 5.921393 -10.174578 -2.968574 -84.970461 45.951924 58.124577 -82.840589 61.110826 74.532293 -156.629586 16.512753 142.762539 -145.119466 0.267775 -179.212461 12.768939 -44.276651 -18.15144 -23.391137 -36.34947 -22.493225 -22.600032 -40.798988 -21.804994 9.651699 34.836178 -11.199233 13.947974 -74.820692 25.030574 -84.554723 -70.552356 -57.647025 161.9994 51.731621 -136.45092 -93.028426 -51.083891 -40.500925 26.208419 -11.186194 16.780707 138.493513 4.896353 -114.8648 22.140998 53.628161 -14.793714 36.036059 51.723116 -29.832321 -14.216017 -42.432129 3.608945 145.118941 0.185402 179.186584 -12.791292 -44.277249 18.129372 77.071637 -51.585313 75.529817 138.064926 -12.603351 137.644751 -0.0 0.0 -0.0 -0.0 -2.27635 -180.0 -3.340447 -2.663598 -150.50614 -75.1639 21.307457 12.836236 -0.0 0.0 -0.0 -0.0 -2.27635 -180.0 3.340447 -2.663598 150.50614 75.1639 21.307457 -12.836236
-70.9218 84.8849 -4.3695 -0.0 0.0 -0.0 -0.0 -4.771896 -180.0 -0.0 -4.771896 -180.0 -8.144544 9.765136 -77.762661 11.253376 5.904095 77.877376 0.0 -0.0 -0.0 0.0 -0.0 -0.0 -85.537448 68.182427 88.688908 5.843373 75.512119 13.59165 -89.644963 -75.619137 -111.334346 48.749916 -65.639982 35.411507 71.831195 -48.263725 25.791675 -158.010648 -37.373882 131.759927 -127.853541 18.70338 107.507054 -145.299128 14.506762 121.735347 7.431997 -23.30116 -2.923946 91.630842 -77.307661 65.575739 -0.014868 -1.323148 -0.415899 1.168086 -18.30511 -1.900817 -12.374441 -24.158049 -11.75793 0.581899 -0.873948 0.782398 158.417022 -29.366393 -166.793865 170.349976 -29.049062 -157.398026 -175.957096 64.42148 -151.870748 -173.363302 -8.530524 -144.738014 -2.016417 -2.000371 0.275365 89.737036 21.502294 -81.741355 166.821797 -43.973781 -122.061691 -59.092454 -49.890454 -3.556291 -10.083106 -31.592321 3.252282 17.650215 36.105393 -12.851991 74.840941 72.961123 -92.827929 -10.827938 29.514625 12.424321 41.391945 -46.839676 40.214593 -1.534792 -2.524495 -0.868773 -0.0 0.0 -0.0 -0.0 -2.27635 -180.0 -6.880793 -5.921355 -107.859822 -11.465574 25.060334 -64.504817 -0.0 0.0 -0.0 -0.0 -2.27635 -180.0 6.880793 -5.921355 107.859822 11.465574 25.060334 64.504817
-70.9999 84.8984 -4.41009 -0.0 0.0 -0.0 -0.0 -4.771896 -180.0 0.0 -4.771896 -180.0 10.50515 4.498364 68.886613 -7.991713 8.18131 -68.727902 0.0 0.0 0.0 0.0 0.0 0.0 -155.417258 -2.951435 161.718542 98.127956 -75.993146 75.587594 16.348852 78.034778 -46.950748 172.815986 -10.197375 144.59171 -176.59845 -14.213085 89.690967 -77.899605 8.121477 24.787695 -155.193415 -24.299992 122.142835 -2.595386 37.966531 4.429951 -36.036059 51.723116 29.832321 -7.315338 26.55537 3.155968 0.004875 1.770451 0.556181 -4.063291 33.344772 5.174268 9.214022 29.589258 8.040252 -163.559454 53.806157 -147.589966 155.417258 -2.951435 -161.718542 -98.127956 -75.993146 -75.587594 -164.560849 7.417479 -166.92887 121.048571 72.413177 -100.276587 166.631339 -4.304864 -89.77151 -24.278156 -60.786388 -22.913897 108.427673 34.160977 -91.742903 79.503256 63.34332 -60.715221 36.036059 51.723116 -29.832321 -3.611713 -6.03399 3.308981 0.014868 -1.323148 0.415899 2.181424 21.664111 -3.451398 81.323898 -51.182704 79.740822 20.785401 -41.054248 22.032237 -0.0 0.0 -0.0 -0.0 -2.27635 -180.0 -6.880793 -5.921355 -107.859822 -11.465574 25.060334 -64.504817 -0.0 0.0 -0.0 -0.0 -2.27635 -180.0 6.880793 -5.921355 107.859822 11.465574 25.060334 64.504817
-71.0608 84.9195 -4.46969 -0.0 0.0 -0.0 -0.0 -4.771896 -180.0 0.0 -4.771896 -180.0 12.037091 11.003981 107.450631 -6.863102 14.769388 -107.723792 -0.0 -0.0 0.0 -0.0 -0.0 0.0 -155.504155 -3.514523 161.838528 98.113498 -75.898646 75.658498 16.722074 77.815031 -47.290924 172.947965 -9.797512 144.628358 -177.936374 -15.50572 89.547746 59.967843 -71.669791 45.449778 -27.608968 30.765951 20.255213 79.652677 -67.967607 38.595755 6.533059 -20.414937 -2.717988 -10.723787 25.450962 7.129045 -70.641094 72.965227 88.425717 5.544205 0.150155 -14.802781 -156.381711 53.734251 -150.117957 -162.776669 54.714705 -144.379091 159.220516 -48.028485 -170.415257 111.863804 60.268802 -121.353402 -173.792176 -30.348894 -140.596018 -177.248405 3.744724 -145.323503 169.319662 -7.000857 -89.921973 -45.995244 -66.203184 -36.378315 46.208543 39.652969 -36.318179 -170.666104 -47.529441 -114.586627 36.036059 51.723116 -29.832321 178.342506 -49.497821 -145.251144 -0.004873 1.771387 -0.556475 3.34078 29.380309 -4.294391 137.37807 -8.61869 134.657906 92.374811 -50.944275 94.300119 -0.0 0.0 -0.0 -0.0 -0.0 -0.0 7.081855 4.181059 77.332942 -151.579957 -27.88746 98.276681 -0.0 0.0 -0.0 -0.0 -0.0 -0.0 -7.081855 4.181059 -77.332942 151.579957 -27.88746 -98.276681
-71.1057 84.9446 -4.51816 -0.0 0.0 -0.0 -0.0 -4.771896 -180.0 -0.0 -4.771896 -180.0 -8.144544 9.765136 -77.762661 11.253376 5.904095 77.877376 0.0 -0.0 -0.0 0.0 -0.0 -0.0 -85.537448 68.182427 88.688908 5.843373 75.512119 13.59165 -89.644963 -75.619137 -111.334346 48.749916 -65.639982 35.411507 71.831195 -48.263725 25.791675 -158.010648 -37.373882 131.759927 -127.853541 18.70338 107.507054 -145.299128 14.506762 121.735347 7.431997 -23.30116 -2.923946 91.630842 -77.307661 65.575739 -0.014868 -1.323148 -0.415899 1.168086 -18.30511 -1.900817 0.708249 1.87804 0.652362 -77.805373 -54.799681 -74.963465 158.417022 -29.366393 -166.793865 170.349976 -29.049062 -157.398026 -175.957096 64.42148 -151.870748 -173.363302 -8.530524 -144.738014 -2.016417 -2.000371 0.275365 89.737036 21.502294 -81.741355 166.821797 -43.973781 -122.061691 -59.092454 -49.890454 -3.556291 -10.083106 -31.592321 3.252282 17.650215 36.105393 -12.851991 74.840941 72.961123 -92.827929 -10.827938 29.514625 12.424321 157.329919 57.246404 150.511839 126.790357 -26.746121 124.351752 -0.0 0.0 -0.0 -0.0 -2.27635 -180.0 -6.880793 -5.921355 -107.859822 -11.465574 25.060334 -64.504817 -0.0 0.0 -0.0 -0.0 -2.27635 -180.0 6.880793 -5.921355 107.859822 11.465574 25.060334 64.504817
-71.1751 84.9687 -4.54542 -0.0 0.0 -0.0 -0.0 -4.771896 -180.0 -0.0 -4.771896 -180.0 -8.144544 9.765136 -77.762661 11.253376 5.904095 77.877376 0.0 -0.0 -0.0 0.0 -0.0 -0.0 -85.537448 68.182427 88.688908 5.843373 75.512119 13.59165 -89.644963 -75.619137 -111.334346 48.749916 -65.639982 35.411507 71.831195 -48.263725 25.791675 -158.010648 -37.373882 131.759927 -127.853541 18.70338 107.507054 -145.299128 14.506762 121.735347 7.431997 -23.30116 -2.923946 91.630842 -77.307661 65.575739 -0.014868 -1.323148 -0.415899 1.168086 -18.30511 -1.900817 0.708249 1.87804 0.652362 -77.805373 -54.799681 -74.963465 158.417022 -29.366393 -166.793865 170.349976 -29.049062 -157.398026 -175.957096 64.42148 -151.870748 -173.363302 -8.530524 -144.738014 -2.016417 -2.000371 0.275365 89.737036 21.502294 -81.741355 166.821797 -43.973781 -122.061691 -59.092454 -49.890454 -3.556291 -10.083106 -31.592321 3.252282 17.650215 36.105393 -12.851991 74.840941 72.961123 -92.827929 -10.827938 29.514625 12.424321 157.329919 57.246404 150.511839 126.790357 -26.746121 124.351752 -0.0 0.0 -0.0 -0.0 -2.27635 -180.0 -6.880793 -5.921355 -107.859822 -11.465574 25.060334 -64.504817 -0.0 0.0 -0.0 -0.0 -2.27635 -180.0 6.880793 -5.921355 107.859822 11.465574 25.060334 64.504817
-71.257 84.9927 -4.57743 -0.0 0.0 -0.0 -0.0 -4.771896 -180.0 0.0 -4.771896 -180.0 10.50515 4.498364 68.886613 -7.991713 8.18131 -68.727902 0.0 0.0 0.0 0.0 0.0 0.0 -155.417258 -2.951435 161.718542 98.127956 -75.993146 75.587594 16.348852 78.034778 -46.950748 172.815986 -10.197375 144.59171 -176.59845 -14.213085 89.690967 -77.899605 8.121477 24.787695 -155.193415 -24.299992 122.142835 -2.595386 37.966531 4.429951 -36.036059 51.723116 29.832321 -7.315338 26.55537 3.155968 0.004875 1.770451 0.556181 -5.11078 38.213858 6.40757 -143.937873 8.265083 -140.720099 -24.346042 -41.364492 -28.105554 155.417258 -2.951435 -161.718542 -98.127956 -75.993146 -75.587594 -164.560849 7.417479 -166.92887 121.048571 72.413177 -100.276587 166.631339 -4.304864 -89.77151 121.208201 10.765549 -56.933816 -37.215945 -57.917763 0.643014 162.177472 -14.760621 -104.113731 36.036059 51.723116 -29.832321 89.976806 66.680668 -80.420352 0.021291 -1.725169 0.542387 165.641405 -1.635447 -171.65636 81.323898 -51.182704 79.740822 8.872551 -27.389907 10.39171 -0.0 0.0 -0.0 -0.0 -2.27635 -180.0 -6.880793 -5.921355 -107.859822 -11.465574 25.060334 -64.504817 -0.0 0.0 -0.0 -0.0 -2.27635 -180.0 6.880793 -5.921355 107.859822 11.465574 25.060334 64.504817
